<mxfile host="65bd71144e">
    <diagram id="3nUAI0BhPpk0L7pBsbA9" name="ページ1">
        <mxGraphModel dx="1386" dy="779" grid="1" gridSize="10" guides="1" tooltips="1" connect="1" arrows="1" fold="1" page="1" pageScale="1" pageWidth="1169" pageHeight="827" background="#FFFFFF" math="0" shadow="0">
            <root>
                <mxCell id="0"/>
                <mxCell id="1" parent="0"/>
                <mxCell id="2" value="" style="rounded=1;whiteSpace=wrap;html=1;fillColor=#FFFFFF;strokeColor=#000000;" parent="1" vertex="1">
                    <mxGeometry x="40" y="40" width="120" height="60" as="geometry"/>
                </mxCell>
                <mxCell id="5" value="✔ 表示" style="text;html=1;strokeColor=none;fillColor=none;align=right;verticalAlign=middle;whiteSpace=wrap;rounded=0;fontColor=#000000;" parent="1" vertex="1">
                    <mxGeometry x="50" y="40" width="50" height="30" as="geometry"/>
                </mxCell>
                <mxCell id="8" value="終了" style="text;html=1;strokeColor=none;fillColor=none;align=right;verticalAlign=middle;whiteSpace=wrap;rounded=0;fontColor=#000000;" parent="1" vertex="1">
                    <mxGeometry x="70" y="70" width="30" height="30" as="geometry"/>
                </mxCell>
                <mxCell id="9" value="" style="endArrow=none;html=1;strokeColor=#000000;fontColor=#000000;" parent="1" edge="1">
                    <mxGeometry width="50" height="50" relative="1" as="geometry">
                        <mxPoint x="50" y="70" as="sourcePoint"/>
                        <mxPoint x="150" y="70" as="targetPoint"/>
                    </mxGeometry>
                </mxCell>
            </root>
        </mxGraphModel>
    </diagram>
</mxfile>